<svg width="27" height="27" viewBox="0 0 27 27" fill="none" xmlns="http://www.w3.org/2000/svg">
<path d="M8.09094 8.43561V7.62784C8.09094 5.49182 8.09094 4.42381 8.77672 3.82599C9.4625 3.22817 10.5205 3.37386 12.6366 3.66523L18.1821 4.42885C20.6517 4.7689 21.8864 4.93892 22.6251 5.78622C23.3637 6.63351 23.3637 7.87993 23.3637 10.3728V16.7362C23.3637 19.229 23.3637 20.4754 22.6251 21.3227C21.8864 22.17 20.6517 22.34 18.1821 22.6801L12.6366 23.4437C10.5205 23.7351 9.4625 23.8807 8.77672 23.2829C8.09094 22.6851 8.09094 21.6171 8.09094 19.4811V18.8814" stroke="#DB0000" stroke-width="2"/>
<path d="M17.9092 13.5545L18.6787 12.9158L19.2087 13.5545L18.6787 14.1931L17.9092 13.5545ZM4.81827 14.5545C4.26598 14.5545 3.81827 14.1067 3.81827 13.5545C3.81827 13.0022 4.26598 12.5545 4.81827 12.5545V14.5545ZM13.5455 8.29688L14.315 7.65822L18.6787 12.9158L17.9092 13.5545L17.1397 14.1931L12.7761 8.93553L13.5455 8.29688ZM17.9092 13.5545L18.6787 14.1931L14.315 19.4507L13.5455 18.812L12.7761 18.1734L17.1397 12.9158L17.9092 13.5545ZM17.9092 13.5545V14.5545H4.81827V13.5545V12.5545H17.9092V13.5545Z" fill="#DB0000"/>
</svg>
