<svg width="54" height="54" viewBox="0 0 54 54" fill="none" xmlns="http://www.w3.org/2000/svg">
<ellipse cx="26.5153" cy="26.5857" rx="26.5153" ry="26.5857" fill="#65B65F"/>
<path d="M24.25 32.6785L22.6428 27.0535" stroke="white" stroke-width="1.5" stroke-linecap="round"/>
<path d="M21.0357 15L17.8214 19.8214M32.2857 15L35.5 19.8214" stroke="white" stroke-width="1.5" stroke-linecap="round"/>
<path d="M29.0714 32.6785L30.6786 27.0535" stroke="white" stroke-width="1.5" stroke-linecap="round"/>
<path d="M14.6072 23.0356V23.0356C14.6098 23.0356 14.6112 23.0356 14.6123 23.0356C15.548 23.0367 16.3578 23.6864 16.5618 24.5995C16.5621 24.6006 16.5624 24.6019 16.563 24.6045L18.7325 34.3677C19.0662 35.8693 19.2331 36.6201 19.7815 37.06C20.3299 37.4999 21.099 37.4999 22.6373 37.4999H30.6842C32.2225 37.4999 32.9916 37.4999 33.54 37.06C34.0884 36.6201 34.2553 35.8693 34.589 34.3677L36.7585 24.6045C36.7591 24.6019 36.7594 24.6006 36.7597 24.5995C36.9637 23.6864 37.7735 23.0367 38.7092 23.0356C38.7103 23.0356 38.7117 23.0356 38.7143 23.0356V23.0356" stroke="white" stroke-width="1.5" stroke-linecap="round"/>
<path d="M38.7143 23.0358H14.6071C13.7195 23.0358 13 22.3163 13 21.4287C13 20.5411 13.7195 19.8215 14.6071 19.8215H38.7143C39.6019 19.8215 40.3214 20.5411 40.3214 21.4287C40.3214 22.3163 39.6019 23.0358 38.7143 23.0358Z" stroke="white" stroke-width="1.5" stroke-linecap="round"/>
</svg>
