<svg width="22" height="21" viewBox="0 0 22 21" fill="none" xmlns="http://www.w3.org/2000/svg">
<path d="M6.46528 18.7581C7.9069 19.5595 9.57956 20.018 11.3633 20.018C16.7858 20.018 21.1819 15.7811 21.1819 10.5545C21.1819 5.32783 16.7861 1.09082 11.3637 1.09082C5.94128 1.09082 1.54553 5.32783 1.54553 10.5545C1.54553 12.2738 2.02122 13.8861 2.85265 15.2756L2.85587 15.281C2.93587 15.4147 2.97621 15.4821 2.99449 15.5458C3.01172 15.6059 3.01654 15.66 3.01212 15.7222C3.00738 15.789 2.98401 15.8583 2.93609 15.9969L2.09738 18.4222L2.09632 18.4253C1.91936 18.9371 1.83088 19.1929 1.89395 19.3634C1.94894 19.512 2.07101 19.6293 2.22522 19.6824C2.40169 19.743 2.66595 19.6581 3.19449 19.4883L3.20107 19.4859L5.71722 18.6775C5.86049 18.6315 5.93332 18.6081 6.00254 18.6036C6.06708 18.5993 6.12274 18.6049 6.18509 18.6215C6.25137 18.6392 6.32135 18.6781 6.46077 18.7556L6.46528 18.7581Z" stroke="#707070" stroke-width="1.5" stroke-linecap="round" stroke-linejoin="round"/>
</svg>
