<svg width="23" height="23" viewBox="0 0 23 23" fill="none" xmlns="http://www.w3.org/2000/svg">
<path d="M2.68925 6.02269L6.49864 2.2133L6.50949 2.20279C6.89069 1.82158 7.08259 1.62968 7.30705 1.49213C7.50788 1.36906 7.72654 1.27814 7.95557 1.22315C8.2139 1.16113 8.48831 1.16113 9.03733 1.16113H14.4374C14.9864 1.16113 15.262 1.16113 15.5203 1.22315C15.7493 1.27814 15.9682 1.36906 16.1691 1.49213C16.3955 1.63089 16.5899 1.82533 16.9779 2.2133L20.7873 6.02268C21.1755 6.41087 21.3692 6.60459 21.508 6.8311C21.6311 7.03194 21.7212 7.25113 21.7762 7.48017C21.8382 7.73849 21.8387 8.01291 21.8387 8.56193V13.962C21.8387 14.511 21.8382 14.7855 21.7762 15.0438C21.7212 15.2728 21.6311 15.4917 21.508 15.6926C21.3692 15.9191 21.1755 16.1132 20.7873 16.5014L16.9779 20.3108C16.5897 20.699 16.3956 20.8927 16.1691 21.0315C15.9682 21.1546 15.7493 21.2458 15.5203 21.3008C15.2624 21.3627 14.9872 21.3627 14.4399 21.3627H9.03482C8.48748 21.3627 8.2135 21.3627 7.95557 21.3008C7.72654 21.2458 7.50788 21.1546 7.30705 21.0315C7.08053 20.8927 6.88685 20.699 6.49864 20.3108L2.68925 16.5014C2.30129 16.1134 2.10685 15.919 1.96808 15.6926C1.84501 15.4917 1.75409 15.2728 1.6991 15.0438C1.63708 14.7855 1.63708 14.511 1.63708 13.962V8.56193C1.63708 8.01291 1.63708 7.73849 1.6991 7.48017C1.75409 7.25113 1.84501 7.03193 1.96808 6.8311C2.10648 6.60525 2.29989 6.41184 2.68579 6.02593L2.68925 6.02269Z" fill="none"/>
<path d="M8.53536 7.97762C8.72704 7.38696 9.07818 6.86131 9.55026 6.45787C10.0223 6.05442 10.5974 5.7893 11.2107 5.69199C11.824 5.59469 12.4519 5.66878 13.0257 5.9063C13.5995 6.14381 14.0964 6.5356 14.4615 7.03793C14.8266 7.54025 15.0452 8.13356 15.094 8.75263C15.1428 9.3717 15.0194 9.99237 14.7375 10.5457C14.4556 11.099 14.0267 11.5633 13.4972 11.8878C12.9678 12.2122 12.3589 12.384 11.7379 12.384V13.5068M11.7938 16.8735V16.9857L11.682 16.986V16.8735H11.7938ZM6.49864 2.2133L2.68925 6.02269L2.68579 6.02593C2.29989 6.41184 2.10648 6.60525 1.96808 6.8311C1.84501 7.03193 1.75409 7.25113 1.6991 7.48017C1.63708 7.73849 1.63708 8.01291 1.63708 8.56193V13.962C1.63708 14.511 1.63708 14.7855 1.6991 15.0438C1.75409 15.2728 1.84501 15.4917 1.96808 15.6926C2.10685 15.919 2.30129 16.1134 2.68925 16.5014L6.49864 20.3108C6.88685 20.699 7.08053 20.8927 7.30705 21.0315C7.50788 21.1546 7.72654 21.2458 7.95557 21.3008C8.2135 21.3627 8.48748 21.3627 9.03482 21.3627H14.4399C14.9872 21.3627 15.2624 21.3627 15.5203 21.3008C15.7493 21.2458 15.9682 21.1546 16.1691 21.0315C16.3956 20.8927 16.5897 20.699 16.9779 20.3108L20.7873 16.5014C21.1755 16.1132 21.3692 15.9191 21.508 15.6926C21.6311 15.4917 21.7212 15.2728 21.7762 15.0438C21.8382 14.7855 21.8387 14.511 21.8387 13.962V8.56193C21.8387 8.01291 21.8382 7.73849 21.7762 7.48017C21.7212 7.25113 21.6311 7.03194 21.508 6.8311C21.3692 6.60459 21.1755 6.41087 20.7873 6.02268L16.9779 2.2133C16.5899 1.82533 16.3955 1.63089 16.1691 1.49213C15.9682 1.36906 15.7493 1.27814 15.5203 1.22315C15.262 1.16113 14.9864 1.16113 14.4374 1.16113H9.03733C8.48831 1.16113 8.2139 1.16113 7.95557 1.22315C7.72654 1.27814 7.50788 1.36906 7.30705 1.49213C7.08259 1.62968 6.89069 1.82158 6.50949 2.20279L6.49864 2.2133Z" stroke="currentColor" stroke-width="1.5" stroke-linecap="round" stroke-linejoin="round"/>
</svg>
