<svg width="25" height="25" viewBox="0 0 25 25" fill="none" xmlns="http://www.w3.org/2000/svg">
<path d="M18.2727 3.88172V3.88172C19.9296 3.88172 21.2727 5.22487 21.2727 6.88172L21.2727 9.02457C21.2727 9.3587 21.2727 9.52576 21.1961 9.64773C21.1561 9.71133 21.1023 9.76511 21.0387 9.80508C20.9168 9.88171 20.7497 9.88171 20.4156 9.88171L15.2727 9.88171M18.2727 3.88172V3.88172C16.6159 3.88172 15.2727 5.22486 15.2727 6.88172L15.2727 9.88171M18.2727 3.88172L7.27271 3.88172C5.38709 3.88172 4.44428 3.88172 3.85849 4.46751C3.2727 5.05329 3.2727 5.9961 3.2727 7.88172L3.27271 21.8817L6.27271 20.8817L9.27271 21.8817L12.2727 20.8817L15.2727 21.8817L15.2727 9.88171" stroke="#65B65F" stroke-width="1.5"/>
<path d="M7.27271 7.88171L11.2727 7.88171" stroke="#65B65F" stroke-width="1.5" stroke-linecap="round"/>
<path d="M8.27271 11.8817H7.27271" stroke="#65B65F" stroke-width="1.5" stroke-linecap="round"/>
<path d="M7.27271 15.8817L10.2727 15.8817" stroke="#65B65F" stroke-width="1.5" stroke-linecap="round"/>
</svg>
