<svg width="38px" height="38px" viewBox="0 0 54 54" fill="none" xmlns="http://www.w3.org/2000/svg">
	<!-- Home - verde -->
	<path d="M37.7097 32.654V25.7961C37.7097 25.1356 37.7091 24.8051 37.6271 24.4978C37.5544 24.2254 37.435 23.9677 37.2735 23.7348C37.0913 23.4719 36.8379 23.254 36.3302 22.819L30.2697 17.6273C29.327 16.8198 28.8557 16.4162 28.3252 16.2626C27.8578 16.1273 27.3596 16.1273 26.8922 16.2626C26.3622 16.4161 25.8915 16.8193 24.9503 17.6256L18.8878 22.819C18.3801 23.254 18.1268 23.4719 17.9445 23.7348C17.783 23.9677 17.6628 24.2254 17.5901 24.4978C17.5081 24.8052 17.5081 25.1356 17.5081 25.7961V32.654C17.5081 33.8059 17.5081 34.3817 17.7003 34.836C17.9566 35.4418 18.4478 35.9236 19.0666 36.1746C19.5306 36.3627 20.1189 36.3627 21.2955 36.3627C22.4721 36.3627 23.0611 36.3627 23.5251 36.1746C24.1439 35.9236 24.635 35.4419 24.8913 34.8361C25.0835 34.3818 25.0837 33.8058 25.0837 32.6539V31.4178C25.0837 30.0524 26.2142 28.9455 27.6089 28.9455C29.0035 28.9455 30.1341 30.0524 30.1341 31.4178V32.6539C30.1341 33.8058 30.1341 34.3818 30.3263 34.8361C30.5826 35.4419 31.0738 35.9236 31.6926 36.1746C32.1566 36.3627 32.7449 36.3627 33.9215 36.3627C35.0981 36.3627 35.6871 36.3627 36.1511 36.1746C36.7699 35.9236 37.261 35.4418 37.5173 34.836C37.7095 34.3817 37.7097 33.8059 37.7097 32.654Z"
		stroke="#65B65F"
		stroke-width="1.8"
		stroke-linecap="round"
		stroke-linejoin="round"
		fill="none"
	/>
</svg>
