<svg width="32" height="32" viewBox="0 0 32 32" fill="none" xmlns="http://www.w3.org/2000/svg">
<circle cx="22.6667" cy="10.6666" r="5.33333" fill="#65B65F"/>
<path fill-rule="evenodd" clip-rule="evenodd" d="M19.3498 10.3333H25.3336C25.5685 10.3332 25.7845 10.2522 25.9551 10.1166C25.8407 9.42787 25.5151 8.81051 25.0471 8.33325H20.2862C19.7698 8.86005 19.4268 9.55753 19.3498 10.3333ZM15.3408 10.3333H6.66666C6.11437 10.3333 5.66666 9.88554 5.66666 9.33325C5.66666 8.78097 6.11437 8.33325 6.66666 8.33325H15.7123C15.5002 8.96584 15.3719 9.63691 15.3408 10.3333ZM16.7503 15.0002C17.3436 15.8089 18.0986 16.4915 18.9677 17.0002H6.66666C6.11448 17.0002 5.66683 16.5524 5.66666 16.0002C5.66666 15.448 6.11437 15.0002 6.66666 15.0002H16.7503ZM26.3336 22.6663C26.3335 22.1142 25.8857 21.6664 25.3336 21.6663H6.66666C6.11448 21.6663 5.66683 22.1141 5.66666 22.6663C5.66666 23.2185 6.11437 23.6663 6.66666 23.6663H25.3336C25.8858 23.6661 26.3336 23.2184 26.3336 22.6663Z" fill="#65B65F"/>
</svg>
