<svg width="30" height="25" viewBox="0 0 30 25" fill="none" xmlns="http://www.w3.org/2000/svg">
<path d="M21.4685 0.0513167C21.3888 0.0740647 19.3074 1.26265 16.8335 2.69009L12.3465 5.28337H7.42155C2.74682 5.28337 2.49091 5.28905 2.26912 5.39142C2.13831 5.44829 1.97339 5.58478 1.89946 5.68714L1.76297 5.8805L1.74591 8.64439L1.72885 11.414L1.02366 11.8177C0.153549 12.3182 0 12.4945 0 12.9608C0 13.2679 0.028435 13.3305 0.870112 14.792L1.73454 16.2991V17.8005C1.73454 19.2222 1.74022 19.3132 1.85396 19.4952C2.10419 19.9103 2.39992 20.0127 3.32121 20.0127H3.88423L5.20361 22.3046C5.93155 23.5614 6.57418 24.6476 6.64242 24.7159C6.81872 24.9092 7.20544 25.04 7.46135 24.9888C7.58078 24.9661 7.84238 24.8524 8.04712 24.7329C8.25185 24.6192 10.1741 23.5045 12.3237 22.2648L16.225 20.0127H21.4514C24.3802 20.0127 26.7687 19.99 26.8939 19.9558C27.1725 19.8933 27.3773 19.7454 27.5251 19.4952C27.6332 19.3075 27.6389 19.171 27.6673 16.3503L27.6957 13.393L28.2246 13.0859C28.8957 12.6935 29.0606 12.4888 29.0606 12.0509C29.0606 11.7438 29.0322 11.6756 28.3668 10.5211L27.6673 9.30977V7.70034C27.6673 6.69943 27.6445 6.02836 27.6047 5.926C27.5422 5.7497 27.3033 5.48241 27.127 5.38004C27.0588 5.34024 26.655 5.30043 26.1716 5.28337L25.3242 5.25493L23.9309 2.83795C23.1632 1.50719 22.4921 0.369789 22.4409 0.312919C22.3215 0.170744 21.9348 -0.0055534 21.7528 0.000133608C21.6732 0.000133608 21.5481 0.0228816 21.4685 0.0513167ZM23.0551 3.13368C23.7148 4.28245 24.2551 5.23787 24.2551 5.25493C24.2551 5.27199 24.1072 5.28337 23.9196 5.28337H23.584L23.1404 4.49856C22.6741 3.67963 22.458 3.40665 22.276 3.40665C22.2135 3.40665 22.0542 3.45784 21.9177 3.52039C21.3888 3.75925 20.678 3.58295 20.3538 3.14505C20.1377 2.84364 20.0524 2.78108 19.8647 2.78108C19.7567 2.78108 18.9662 3.20761 17.5387 4.03222L15.3777 5.28337H14.8033C14.4848 5.28337 14.246 5.2663 14.2687 5.24356C14.2915 5.22081 15.9748 4.23696 18.0164 3.05975C20.7974 1.45032 21.7414 0.932803 21.7869 0.978299C21.821 1.01811 22.3954 1.9849 23.0551 3.13368ZM19.9785 4.03791C20.0922 4.14028 20.3254 4.28814 20.5017 4.36776C20.7803 4.49856 20.8827 4.51562 21.4571 4.51562H22.0997L22.3215 4.90234L22.5433 5.28337H19.8932C18.4316 5.28337 17.2544 5.27199 17.2714 5.25493C17.3511 5.17531 19.6316 3.8673 19.6998 3.8673C19.7396 3.86161 19.8647 3.94123 19.9785 4.03791ZM26.746 12.631L26.7289 19.0744H14.7009H2.67289L2.65583 12.631L2.64446 6.19329H14.7009H26.7574L26.746 12.631ZM27.9744 11.6585C28.1962 12.068 28.1962 12.068 27.855 12.2443L27.6673 12.3409V11.7552C27.6673 11.4253 27.69 11.1979 27.7185 11.2263C27.7412 11.2604 27.8607 11.4538 27.9744 11.6585ZM1.73454 13.4556C1.73454 14.047 1.71179 14.3826 1.68335 14.3485C1.52981 14.2006 0.89286 12.9836 0.938356 12.9381C1.0066 12.8698 1.63786 12.5116 1.69473 12.5059C1.71748 12.5059 1.73454 12.9324 1.73454 13.4556ZM6.02823 20.7008C6.56849 21.6392 6.67086 21.7074 7.14288 21.4913C7.67177 21.2525 8.38265 21.4288 8.70681 21.8667C9.07646 22.3785 9.12196 22.3671 10.4243 21.6165C11.01 21.2752 11.8745 20.7748 12.3465 20.5018L13.2109 20.007L13.7853 20.0241L14.3597 20.0411L10.8679 22.0544C8.94566 23.1633 7.3533 24.0676 7.33055 24.0676C7.27937 24.0676 4.98182 20.1378 4.97613 20.0525C4.97613 20.0298 5.12399 20.0127 5.30598 20.0127H5.63582L6.02823 20.7008ZM11.2603 20.081C11.1977 20.1151 10.7541 20.371 10.2764 20.6497C9.79871 20.9226 9.37219 21.1501 9.33238 21.1501C9.29257 21.1501 9.1902 21.0762 9.1049 20.9852C9.01959 20.8942 8.78643 20.7463 8.59876 20.6553C8.28028 20.5132 8.18929 20.4961 7.60353 20.4961H6.9609L6.81872 20.2516L6.67655 20.0127H9.02528C10.811 20.0184 11.3456 20.0298 11.2603 20.081Z"/>
<path d="M5.14675 6.92117C5.05007 6.9951 5.00458 7.12022 4.97046 7.3477C4.91927 7.75148 4.69748 8.14388 4.41882 8.32586C4.30508 8.3998 4.0321 8.50216 3.81599 8.54766C3.60557 8.59315 3.38378 8.66708 3.3326 8.71827C3.25298 8.80357 3.24161 9.17892 3.22454 12.5229C3.21886 14.5645 3.22454 16.2877 3.24161 16.3559C3.29279 16.5607 3.49752 16.7142 3.71931 16.7142C4.00935 16.7142 4.47 16.9474 4.67473 17.1919C4.84534 17.4023 4.97614 17.7322 4.97614 17.954C4.97614 18.1473 5.08988 18.3464 5.24343 18.4146C5.34011 18.4601 7.99594 18.4772 14.7294 18.4772H24.0788L24.2153 18.3464C24.312 18.2611 24.3688 18.1132 24.4143 17.8573C24.4485 17.6582 24.5395 17.408 24.6077 17.3C24.8409 16.9587 25.2958 16.7142 25.6939 16.7142C25.7849 16.7142 25.91 16.6573 25.9896 16.572L26.1318 16.4355V12.6309V8.82632L26.0067 8.71258C25.9328 8.64434 25.7565 8.57609 25.5915 8.55334C24.9205 8.45667 24.494 8.03014 24.3973 7.35907C24.3745 7.19415 24.3063 7.01785 24.238 6.94392L24.1243 6.81881H14.6952C5.65858 6.81881 5.26618 6.82449 5.14675 6.92117ZM23.6523 8.07564C23.8911 8.6614 24.2892 9.05949 24.8693 9.29834L25.1935 9.42914L25.2105 12.6366L25.2219 15.8441L24.8807 15.9692C24.4257 16.1341 23.9821 16.5493 23.7546 17.0156C23.658 17.209 23.567 17.4137 23.5499 17.4649C23.5215 17.5616 23.0495 17.5673 14.6725 17.5673C7.63766 17.5673 5.82919 17.5502 5.82919 17.4933C5.82919 17.317 5.47091 16.6915 5.23206 16.4583C4.99889 16.2194 4.37332 15.8611 4.19134 15.8611C4.13447 15.8611 4.12309 15.1958 4.13447 12.6423L4.15153 9.42346L4.40176 9.33815C4.75435 9.21872 5.02164 9.04243 5.30599 8.72964C5.53916 8.47941 5.82919 7.9619 5.82919 7.79697C5.82919 7.7401 7.61492 7.72873 14.6782 7.7401L23.5215 7.75716L23.6523 8.07564Z"/>
<path d="M13.6998 8.51355C11.2373 9.14481 9.85537 11.704 10.7027 14.0584C10.9075 14.6328 11.2032 15.0991 11.6525 15.5654C12.1529 16.083 12.6932 16.4242 13.3927 16.663C13.8875 16.8336 13.9955 16.8507 14.6438 16.8507C15.2182 16.8507 15.44 16.828 15.8097 16.7256C17.2314 16.3161 18.329 15.2299 18.7726 13.7854C18.8579 13.5181 18.8806 13.2679 18.8806 12.6196C18.875 11.8803 18.8636 11.7495 18.7214 11.34C18.4996 10.6746 18.2039 10.2083 17.6579 9.66233C17.1006 9.105 16.7253 8.86615 16.0258 8.62161C15.5936 8.47375 15.4286 8.44531 14.8144 8.43394C14.2685 8.41688 14.0126 8.43394 13.6998 8.51355ZM15.7642 9.49172C16.7139 9.82157 17.493 10.6064 17.8342 11.5732C18.0048 12.0395 18.0447 12.921 17.9195 13.4158C17.6124 14.6441 16.5888 15.628 15.3547 15.8896C14.8542 15.992 14.4903 15.9977 14.0069 15.8896C12.2553 15.5199 11.0781 13.774 11.4193 12.0452C11.6695 10.777 12.5567 9.80451 13.8192 9.42348C14.2969 9.2813 15.2637 9.31542 15.7642 9.49172Z"/>
<path d="M14.5019 9.72493C14.3312 9.8216 14.2459 9.95241 14.2459 10.123C14.2459 10.2595 14.2061 10.2993 13.9787 10.4017C13.4327 10.6405 13.1142 11.0955 13.1085 11.6414C13.1085 12.4035 13.5635 12.83 14.6554 13.0859C15.0535 13.1769 15.2184 13.2395 15.3378 13.3646C15.6961 13.7229 15.3833 14.1039 14.7293 14.1039C14.2914 14.1039 14.0298 13.9674 13.8933 13.666C13.7227 13.2679 13.4441 13.1428 13.1768 13.3362C12.9721 13.4784 12.9322 13.6546 13.0289 13.9504C13.1597 14.3257 13.4953 14.6783 13.899 14.8603C14.2004 14.9968 14.2459 15.0366 14.2459 15.1731C14.2459 15.5086 14.7123 15.702 14.9739 15.4745C15.0421 15.4233 15.1161 15.2925 15.1388 15.1845C15.1786 15.0195 15.2298 14.9797 15.4914 14.8774C16.2705 14.593 16.6061 13.8196 16.2705 13.103C16.1966 12.9438 16.0772 12.7618 16.0032 12.6935C15.7814 12.4945 15.3265 12.2955 14.8431 12.1931C14.5928 12.1362 14.3426 12.0737 14.2914 12.0452C13.8251 11.8007 13.99 11.2547 14.553 11.1694C14.8772 11.1182 15.1559 11.2434 15.3606 11.5163C15.5767 11.8177 15.662 11.8803 15.8497 11.8803C16.0658 11.8803 16.2933 11.6528 16.2933 11.4367C16.2933 11.2661 16.0487 10.8453 15.8326 10.6462C15.7587 10.578 15.571 10.4699 15.4232 10.4017C15.2127 10.305 15.1559 10.2538 15.1559 10.1458C15.1559 9.85004 14.7464 9.58844 14.5019 9.72493Z"/>
<path d="M7.16575 11.3059C6.52312 11.4708 6.14778 11.9655 6.14209 12.6537C6.14209 13.0006 6.16484 13.0916 6.3127 13.3361C6.56293 13.7342 6.93258 13.9446 7.41598 13.9731C8.0188 14.0072 8.46239 13.7513 8.70693 13.2167C9.01403 12.557 8.74674 11.7551 8.10411 11.4253C7.85957 11.3002 7.41029 11.2433 7.16575 11.3059ZM7.70033 12.2499C7.87663 12.3409 7.9335 12.4376 7.9335 12.665C7.9335 13.0461 7.38186 13.2281 7.143 12.9267C6.97808 12.7162 6.99514 12.5286 7.1885 12.3295C7.37617 12.1418 7.47285 12.1305 7.70033 12.2499Z"/>
<path d="M21.4686 11.34C20.4847 11.6471 20.2117 12.904 20.9681 13.6262C21.224 13.8708 21.514 13.9845 21.8951 13.9845C22.6742 13.9845 23.2258 13.4272 23.2315 12.6424C23.2315 12.0054 22.8448 11.4879 22.2363 11.3173C21.9463 11.2377 21.787 11.2434 21.4686 11.34ZM22.2249 12.341C22.4524 12.6196 22.2704 13.0746 21.9292 13.0746C21.6847 13.0746 21.588 13.0234 21.4913 12.8414C21.3889 12.631 21.4344 12.4263 21.6278 12.2727C21.8098 12.1305 22.0714 12.159 22.2249 12.341Z"/>
</svg>