<svg width="5" height="7" viewBox="0 0 5 7" fill="none" xmlns="http://www.w3.org/2000/svg">
<path d="M2.50192 0.724803C2.33131 0.821483 2.246 0.952284 2.246 1.12289C2.246 1.25938 2.20619 1.29919 1.97871 1.40156C1.43276 1.64041 1.11429 2.09537 1.1086 2.64132C1.1086 3.40338 1.56356 3.82991 2.65547 4.08583C3.05356 4.17682 3.21848 4.23937 3.33791 4.36449C3.69619 4.72277 3.3834 5.1038 2.7294 5.1038C2.2915 5.1038 2.0299 4.96731 1.89341 4.6659C1.7228 4.26781 1.44414 4.1427 1.17685 4.33605C0.972113 4.47823 0.932304 4.65453 1.02898 4.95025C1.15978 5.32559 1.49532 5.67819 1.8991 5.86017C2.20051 5.99666 2.246 6.03647 2.246 6.17296C2.246 6.50849 2.71234 6.70185 2.97394 6.47437C3.04218 6.42319 3.11612 6.29238 3.13886 6.18433C3.17867 6.01941 3.22986 5.9796 3.49146 5.87723C4.27058 5.59288 4.60611 4.81945 4.27058 4.10289C4.19665 3.94365 4.07722 3.76167 4.00329 3.69342C3.7815 3.49438 3.32653 3.29533 2.84314 3.19296C2.59291 3.13609 2.34268 3.07354 2.2915 3.0451C1.82516 2.80056 1.99009 2.25461 2.5531 2.1693C2.87726 2.11812 3.15592 2.24323 3.36066 2.51621C3.57676 2.81762 3.66207 2.88018 3.84974 2.88018C4.06585 2.88018 4.29333 2.6527 4.29333 2.43659C4.29333 2.26598 4.04878 1.84514 3.83268 1.6461C3.75875 1.57785 3.57108 1.4698 3.42321 1.40156C3.21279 1.30488 3.15592 1.2537 3.15592 1.14564C3.15592 0.849917 2.74646 0.588315 2.50192 0.724803Z" fill="#363636"/>
</svg>
