<svg width="24" height="19" viewBox="0 0 24 19" fill="none" xmlns="http://www.w3.org/2000/svg">
<path d="M1 8.28571V14.1145C1 15.4747 1 16.1544 1.26643 16.6739C1.50079 17.1308 1.87447 17.5027 2.33442 17.7356C2.8568 18 3.54099 18 4.90733 18H19.0927C20.459 18 21.1422 18 21.6646 17.7356C22.1245 17.5027 22.4995 17.1308 22.7338 16.6739C23 16.1549 23 15.4761 23 14.1186V8.28571M1 8.28571V5.85714M1 8.28571H23M1 5.85714V4.88595C1 3.52582 1 2.84525 1.26643 2.32575C1.50079 1.86879 1.87447 1.49753 2.33442 1.2647C2.85731 1 3.54233 1 4.91135 1H19.0891C20.4581 1 21.1417 1 21.6646 1.2647C22.1245 1.49753 22.4995 1.86879 22.7338 2.32575C23 2.84475 23 3.52449 23 4.88196V5.85714M1 5.85714H23M5.88889 13.1429H10.7778M23 8.28571V5.85714" 
  stroke="currentColor"
  stroke-width="1.5"
  stroke-linecap="round"
  stroke-linejoin="round"
/>
</svg>